PathFileType	4	(X/Y/Z)	/Users/itak/Documents/Research/Walk-IL/dataset/trc/00467_00167.trc
DataRate	CameraRate	NumFrames	NumMarkers	Units	OrigDataRate	OrigDataStartFrame	OrigNumFrames
100.000000	100.000000	4	53	mm	100.000000	228	608
Frame#	Time	RPSI			LPSI			L3			STRN			T10			C7			CLAV			RBAK			LBAK			LSHO			LUPA			LAEL			LAOL			LWTS			LWPS			LFRA			LIFD			LHPS			LHTS			RSHO			RUPA			RAEL			RAOL			RWTS			RWPS			RFRA			RIFD			RHTS			RHPS			RBHD			LFHD			RFHD			LBHD			LHIP			RHIP			RASI			LASI			LKNE			LTHI			LANK			LTIP			LTOE			LMT1			LMT5			LHEE			RKNE			RTHI			RANK			RTIP			RTOE			RMT1			RMT5			RHEE			
		X1	Y1	Z1	X2	Y2	Z2	X3	Y3	Z3	X4	Y4	Z4	X5	Y5	Z5	X6	Y6	Z6	X7	Y7	Z7	X8	Y8	Z8	X9	Y9	Z9	X10	Y10	Z10	X11	Y11	Z11	X12	Y12	Z12	X13	Y13	Z13	X14	Y14	Z14	X15	Y15	Z15	X16	Y16	Z16	X17	Y17	Z17	X18	Y18	Z18	X19	Y19	Z19	X20	Y20	Z20	X21	Y21	Z21	X22	Y22	Z22	X23	Y23	Z23	X24	Y24	Z24	X25	Y25	Z25	X26	Y26	Z26	X27	Y27	Z27	X28	Y28	Z28	X29	Y29	Z29	X30	Y30	Z30	X31	Y31	Z31	X32	Y32	Z32	X33	Y33	Z33	X34	Y34	Z34	X35	Y35	Z35	X36	Y36	Z36	X37	Y37	Z37	X38	Y38	Z38	X39	Y39	Z39	X40	Y40	Z40	X41	Y41	Z41	X42	Y42	Z42	X43	Y43	Z43	X44	Y44	Z44	X45	Y45	Z45	X46	Y46	Z46	X47	Y47	Z47	X48	Y48	Z48	X49	Y49	Z49	X50	Y50	Z50	X51	Y51	Z51	X52	Y52	Z52	X53	Y53	Z53	

229	2.28	-579.0819091796875	949.3714599609375	-526.7557373046875	-572.9534301757812	953.8185424804688	-670.2444458007812	-559.618408203125	1056.8349609375	-587.2852783203125	-279.3497314453125	1245.401245117188	-590.182373046875	-568.116455078125	1181.01953125	-592.4581909179688	-495.076171875	1447.365478515625	-573.6971435546875	-313.3085632324219	1358.869873046875	-589.8683471679688	-560.121337890625	1326.450561523438	-482.6161193847656	-527.8126220703125	1403.525390625	-675.477783203125	-423.9569091796875	1424.273193359375	-751.9989013671875	-424.5449829101562	1312.716430664062	-857.212158203125	-382.7055358886719	1103.32666015625	-907.2137451171875	-465.36865234375	1075.739135742188	-850.428466796875	-281.6800231933594	909.9991455078125	-872.6798095703125	-324.0302124023438	894.0454711914062	-931.7969360351562	-350.96533203125	1019.522094726562	-920.8934936523438	-255.74951171875	756.6212158203125	-904.1499633789062	-306.6817321777344	820.3812255859375	-940.7303466796875	-253.6731414794922	830.5015869140625	-892.3626708984375	-425.9407043457031	1410.482543945312	-416.0303649902344	-445.6527404785156	1351.869384765625	-341.7857360839844	-451.3585205078125	1070.631225585938	-271.2328491210938	-504.2296142578125	1051.072509765625	-309.0679016113281	-340.5876770019531	872.237060546875	-316.6915893554688	-403.4067077636719	851.9158935546875	-258.3502197265625	-444.2223815917969	1011.785705566406	-260.7811279296875	-317.4091186523438	719.2454833984375	-301.2215881347656	-312.7622985839844	779.8184814453125	-302.8959655761719	-377.6237182617188	767.8740234375	-260.0596313476562	-402.89697265625	1641.892211914062	-487.6941223144531	-259.0701293945312	1648.032592773438	-635.6453857421875	-266.1954040527344	1649.065063476562	-505.6906433105469	-408.7666625976562	1646.39990234375	-665.3217163085938	-421.7421569824219	855.5291137695312	-782.85546875	-456.3023986816406	849.4949951171875	-383.3290100097656	-359.02294921875	896.6149291992188	-447.9761047363281	-334.5112609863281	899.2254638671875	-699.966796875	-337.3104553222656	440.8938293457031	-712.1102905273438	-340.7237548828125	593.0860595703125	-748.3509521484375	-461.5191040039062	40.78197860717773	-703.2263793945312	-359.2922058105469	285.4314880371094	-718.2579345703125	-241.0079498291016	43.1369743347168	-603.1322021484375	-317.1452026367188	46.6689338684082	-588.1609497070312	-308.5355224609375	48.12819671630859	-700.97998046875	-512.3740844726562	46.04767608642578	-645.03076171875	-331.4855651855469	479.9862976074219	-378.3184204101562	-381.9480285644531	729.19677734375	-366.2184448242188	-631.4986572265625	167.4246063232422	-401.9888000488281	-408.8821105957031	355.7116394042969	-375.4884643554688	-455.5254211425781	51.80628967285156	-440.3693542480469	-506.7260131835938	83	-482.825927734375	-532.1668090820312	86.92990112304688	-380.2015075683594	-683.54248046875	205.7248687744141	-448.0371398925781	
230	2.29	-569.6849975585938	949.1307983398438	-525.9686279296875	-564.7189331054688	954.0191040039062	-669.5145874023438	-550.8599243164062	1056.918334960938	-587.3929443359375	-271.2315063476562	1245.952270507812	-590.6371459960938	-559.6358642578125	1181.028442382812	-592.89404296875	-487.1914672851562	1447.53173828125	-573.7681884765625	-305.2158203125	1359.399536132812	-589.804443359375	-552.1343994140625	1326.2373046875	-483.0926513671875	-519.6708374023438	1403.94580078125	-675.7477416992188	-415.7411804199219	1425.23974609375	-751.9158325195312	-415.2325439453125	1314.207763671875	-857.5958251953125	-370.6063232421875	1105.529541015625	-908.3162231445312	-453.1600341796875	1076.594482421875	-852.08544921875	-265.9954223632812	914.2252807617188	-873.1557006835938	-307.830810546875	897.3226318359375	-932.3606567382812	-337.238037109375	1022.300354003906	-921.76416015625	-237.0537261962891	761.323486328125	-904.633056640625	-289.0983581542969	824.1064453125	-941.2353515625	-236.4521179199219	835.207763671875	-892.764892578125	-418.3708190917969	1410.379028320312	-416.0914611816406	-438.2704162597656	1351.790771484375	-341.9996032714844	-443.9639282226562	1070.800537109375	-271.0597229003906	-496.5213928222656	1050.96533203125	-309.1831665039062	-332.0357055664062	872.844970703125	-315.4220886230469	-395.2023010253906	852.3634643554688	-257.4317321777344	-436.6372375488281	1011.980407714844	-260.4894409179688	-308.0344848632812	720.0733642578125	-299.1229553222656	-303.7171020507812	780.6834716796875	-300.9923095703125	-368.86767578125	768.507568359375	-258.5633850097656	-395.0734252929688	1641.975219726562	-486.9079284667969	-250.6951751708984	1648.391845703125	-634.3676147460938	-258.2510375976562	1649.153076171875	-504.4651489257812	-400.310791015625	1646.867431640625	-664.5823364257812	-414.7138061523438	855.6351318359375	-783.4155883789062	-444.4206848144531	850.1810302734375	-383.4468688964844	-348.7398376464844	897.751220703125	-449.452880859375	-326.4201354980469	899.3082275390625	-701.6543579101562	-334.4366149902344	440.0867309570312	-712.6998291015625	-336.3326721191406	592.3954467773438	-748.9885864257812	-461.5611877441406	40.82941818237305	-703.1699829101562	-357.6324462890625	284.7523193359375	-718.4908447265625	-240.8973693847656	43.17137908935547	-603.25048828125	-316.9491882324219	46.75230407714844	-588.2047119140625	-308.5939636230469	48.07440185546875	-701.0372924804688	-512.4757080078125	46.21967697143555	-644.7817993164062	-312.3014831542969	482.0880126953125	-381.1073303222656	-367.5466613769531	731.1732788085938	-367.0343322753906	-599.7098388671875	156.433349609375	-402.6358032226562	-385.5481262207031	354.8038330078125	-377.762939453125	-417.408935546875	51.48548889160156	-441.8104248046875	-470.5693359375	79.47380065917969	-484.1028747558594	-495.9078979492188	81.77005004882812	-381.4117736816406	-654.052001953125	191.9788055419922	-448.3884887695312	
231	2.3	-560.2962646484375	948.7431030273438	-525.1859130859375	-556.433837890625	954.07958984375	-668.7694702148438	-542.0546875	1056.849609375	-587.4576416015625	-263.0942993164062	1246.359130859375	-591.0081176757812	-551.1348266601562	1180.902221679688	-593.259521484375	-479.2931823730469	1447.546630859375	-573.7803344726562	-297.1061401367188	1359.772583007812	-589.685546875	-544.1316528320312	1325.873046875	-483.5194091796875	-511.5128784179688	1404.209350585938	-675.9657592773438	-407.508056640625	1426.050659179688	-751.7791748046875	-405.9454956054688	1315.554931640625	-857.9241943359375	-358.6257629394531	1107.592163085938	-909.3186645507812	-441.0349731445312	1077.356201171875	-853.620849609375	-250.4658203125	918.4093627929688	-873.3935546875	-291.7734680175781	900.5143432617188	-932.6715698242188	-323.6425170898438	1024.96435546875	-922.4708862304688	-218.4878387451172	766.0311279296875	-904.679931640625	-271.6387329101562	827.7366943359375	-941.3759155273438	-219.3912963867188	839.8778686523438	-892.8278198242188	-410.7871704101562	1410.1142578125	-416.1067199707031	-430.8741760253906	1351.540893554688	-342.1533203125	-436.6760559082031	1070.800170898438	-270.8447265625	-488.9005126953125	1050.708740234375	-309.2770690917969	-323.713134765625	873.1724853515625	-314.1271667480469	-387.2371215820312	852.5927734375	-256.4560241699219	-429.1997680664062	1012.008972167969	-260.140625	-299.216064453125	720.5700073242188	-297.1772155761719	-295.1038818359375	781.2012329101562	-299.1762390136719	-360.5335388183594	768.8748168945312	-257.1286315917969	-387.2701110839844	1641.908325195312	-486.0786437988281	-242.3362579345703	1648.59619140625	-633.0267333984375	-250.3469848632812	1649.099853515625	-503.1661682128906	-391.8737487792969	1647.147705078125	-663.787109375	-407.5881652832031	855.64306640625	-783.8760375976562	-432.7322082519531	850.7048950195312	-383.4931945800781	-338.5198059082031	898.7471313476562	-450.7698364257812	-318.3139038085938	899.2680053710938	-703.1591186523438	-331.4748229980469	439.2262878417969	-713.2092895507812	-331.8062133789062	591.6713256835938	-749.4921264648438	-461.5923767089844	40.88138961791992	-703.1162719726562	-355.9004516601562	284.0402221679688	-718.6450805664062	-240.7291259765625	43.20705413818359	-603.3479614257812	-316.7354431152344	46.84091567993164	-588.2139892578125	-308.6387939453125	48.02616882324219	-701.0775756835938	-512.57470703125	46.40384674072266	-644.4965209960938	-293.7688293457031	484.1608581542969	-383.9876098632812	-353.4485473632812	733.0025024414062	-367.8759155273438	-567.2206420898438	145.2590026855469	-403.1878356933594	-362.5582580566406	353.9902038574219	-380.006591796875	-379.1069641113281	51.48371505737305	-442.5867614746094	-433.9012145996094	76.04608917236328	-484.8918151855469	-459.3046875	76.78963470458984	-382.1883239746094	-623.5941772460938	177.7917785644531	-448.8464660644531	
232	2.31	-550.9126586914062	948.2158813476562	-524.399658203125	-548.094482421875	953.992431640625	-668.0014038085938	-533.2192993164062	1056.631469726562	-587.4653930664062	-254.9347686767578	1246.614868164062	-591.2862548828125	-542.6113891601562	1180.638671875	-593.5492553710938	-471.3697814941406	1447.405639648438	-573.73681640625	-288.97802734375	1359.984741210938	-589.5091552734375	-536.1030883789062	1325.353393554688	-483.8967895507812	-503.3319091796875	1404.311767578125	-676.1333618164062	-399.24658203125	1426.694580078125	-751.5879516601562	-396.6663818359375	1316.745727539062	-858.1954956054688	-346.7378845214844	1109.500610351562	-910.21337890625	-428.9869079589844	1078.009399414062	-855.045654296875	-235.0993194580078	922.5202026367188	-873.3818359375	-275.8538513183594	903.6095581054688	-932.7335815429688	-310.1546630859375	1027.499755859375	-923.0067138671875	-200.0581817626953	770.718017578125	-904.287109375	-254.2903442382812	831.2631225585938	-941.1748046875	-202.4886322021484	844.4973754882812	-892.5474243164062	-403.1833801269531	1409.6904296875	-416.0748291015625	-423.4565124511719	1351.115356445312	-342.2484741210938	-429.5007934570312	1070.625	-270.5932922363281	-481.3622131347656	1050.29833984375	-309.3698120117188	-315.6299743652344	873.2241821289062	-312.7947692871094	-379.5293884277344	852.5968017578125	-255.4390258789062	-421.9250793457031	1011.866088867188	-259.7337951660156	-290.9252014160156	720.7377319335938	-295.3565063476562	-286.9248657226562	781.376220703125	-297.4292602539062	-352.6166381835938	768.9683227539062	-255.7620239257812	-379.4739990234375	1641.686767578125	-485.214599609375	-233.9850006103516	1648.64013671875	-631.6347045898438	-242.4782257080078	1648.8994140625	-501.7984008789062	-383.4409484863281	1647.239379882812	-662.9410400390625	-400.3806457519531	855.5474243164062	-784.2467041015625	-421.2252502441406	851.0571899414062	-383.4994201660156	-328.3442077636719	899.58544921875	-451.9412841796875	-310.1824645996094	899.109619140625	-704.4970703125	-328.398193359375	438.3046264648438	-713.6314697265625	-327.1407775878906	590.9039916992188	-749.8681640625	-461.6132507324219	40.9368782043457	-703.0591430664062	-354.0801696777344	283.2920532226562	-718.7149047851562	-240.5042419433594	43.23616409301758	-603.4271240234375	-316.5291442871094	46.91876220703125	-588.1935424804688	-308.6730346679688	47.98615646362305	-701.1016235351562	-512.6640625	46.5853157043457	-644.190185546875	-275.9637756347656	486.1795654296875	-386.9452209472656	-339.6909484863281	734.6275024414062	-368.749755859375	-534.0927124023438	134.1021575927734	-403.6348266601562	-339.9994812011719	353.3217163085938	-382.1903076171875	-340.7212829589844	51.90146255493164	-442.6045532226562	-396.7763671875	72.86254119873047	-485.1095886230469	-422.461669921875	72.13847351074219	-382.46875	-592.1653442382812	163.3681488037109	-449.4473571777344	
